<?xml version="1.0" standalone="no"?>
<!DOCTYPE svg PUBLIC "-//W3C//DTD SVG 20010904//EN"
 "http://www.w3.org/TR/2001/REC-SVG-20010904/DTD/svg10.dtd">
<svg version="1.0" xmlns="http://www.w3.org/2000/svg"
 width="500.000000pt" height="500.000000pt" viewBox="0 0 500.000000 500.000000"
 preserveAspectRatio="xMidYMid meet">

<g transform="translate(0.000000,500.000000) scale(0.100000,-0.100000)"
fill="#000000" stroke="none">
<path d="M2467 4163 c-4 -3 -7 -118 -7 -254 l0 -247 -420 -733 c-231 -403
-420 -739 -420 -746 0 -11 164 -13 880 -13 797 0 880 1 880 16 0 9 -138 246
-306 527 -168 282 -309 519 -314 527 -5 8 -65 109 -134 223 l-126 209 0 96 0
97 135 80 c88 52 134 85 132 95 -1 10 -47 28 -134 55 -97 29 -133 44 -136 57
-5 18 -18 23 -30 11z m142 -102 c93 -27 94 -28 70 -44 -19 -12 -142 -86 -171
-104 -5 -2 -8 37 -8 86 0 50 3 91 8 91 4 0 49 -13 101 -29z m-4 -640 c63 -106
115 -197 115 -201 0 -10 -40 -80 -45 -80 -2 0 -43 72 -92 160 -48 88 -91 160
-94 160 -3 0 -46 -75 -95 -166 l-89 -166 -27 33 c-16 18 -28 39 -28 45 0 11
59 118 192 347 22 38 41 67 44 65 2 -2 55 -91 119 -197z m446 -745 l276 -461
-414 -3 c-227 -1 -599 -1 -826 0 l-413 3 274 478 274 478 29 -38 c16 -21 29
-41 29 -45 0 -3 -92 -178 -205 -388 -113 -209 -205 -383 -205 -385 0 -3 284
-5 631 -5 561 0 630 2 625 15 -3 9 -101 185 -217 392 l-211 377 23 44 c24 43
24 43 39 21 8 -12 139 -230 291 -483z"/>
<path d="M488 2044 c-5 -4 -8 -81 -8 -171 l0 -164 43 3 42 3 3 48 c3 43 5 47
28 47 61 0 114 58 114 125 0 34 -25 82 -50 95 -24 13 -163 25 -172 14z m126
-100 c8 -20 -11 -54 -29 -54 -10 0 -15 11 -15 35 0 28 4 35 19 35 10 0 22 -7
25 -16z"/>
<path d="M777 2043 c-4 -3 -7 -80 -7 -170 l0 -163 45 0 44 0 3 63 3 62 30 -60
c34 -68 56 -78 98 -45 l27 22 -29 51 c-29 52 -29 52 -10 76 25 30 26 101 1
131 -10 13 -36 25 -62 31 -54 10 -134 12 -143 2z m128 -103 c7 -23 -10 -50
-31 -50 -9 0 -14 12 -14 35 0 28 4 35 19 35 11 0 23 -9 26 -20z"/>
<path d="M1141 2033 c-54 -28 -74 -64 -79 -139 -8 -120 44 -184 148 -184 98 0
150 60 150 173 0 60 -23 112 -62 140 -38 28 -114 33 -157 10z m101 -90 c23
-21 25 -104 2 -127 -39 -40 -84 -7 -84 61 0 71 40 104 82 66z"/>
<path d="M1500 2039 c-61 -25 -92 -78 -91 -160 0 -117 50 -169 161 -169 36 0
70 4 76 8 7 4 15 41 19 83 7 76 7 76 -18 83 -42 10 -57 -2 -57 -45 0 -34 -3
-39 -23 -39 -45 0 -77 62 -58 113 14 37 53 54 92 40 28 -11 31 -10 46 22 9 18
13 40 10 48 -10 25 -108 35 -157 16z"/>
<path d="M1738 2044 c-5 -4 -8 -81 -8 -171 l0 -163 45 0 44 0 3 63 4 62 28
-62 c33 -71 56 -80 100 -40 l26 22 -30 47 -30 48 20 32 c20 33 26 81 14 113
-4 8 -20 23 -36 31 -33 17 -169 31 -180 18z m125 -106 c8 -12 7 -21 -2 -32
-23 -28 -41 -19 -41 20 0 28 4 35 16 32 9 -2 22 -10 27 -20z"/>
<path d="M2123 2042 c-18 -2 -33 -5 -33 -8 0 -3 -18 -73 -40 -155 -22 -83 -40
-155 -40 -160 0 -6 19 -9 42 -7 38 3 43 6 52 36 8 29 13 32 47 32 35 0 39 -3
47 -32 8 -31 11 -33 55 -36 33 -2 47 1 47 10 0 7 -16 81 -37 165 l-37 151 -35
4 c-20 1 -51 2 -68 0z m46 -179 c1 -17 -5 -23 -20 -23 -20 0 -21 4 -15 42 4
22 10 46 14 52 7 11 19 -29 21 -71z"/>
<path d="M2379 2043 c-14 -3 -17 -29 -22 -161 -3 -86 -3 -160 -1 -164 3 -4 22
-8 43 -8 46 0 50 9 52 120 l1 75 31 -95 c31 -92 33 -95 62 -95 28 0 30 3 60
95 l30 95 5 -95 5 -95 43 -3 c28 -2 44 1 47 10 2 7 1 80 -3 162 l-7 150 -30 8
c-16 5 -46 6 -66 2 -36 -5 -37 -7 -59 -80 -12 -41 -23 -74 -24 -74 -2 0 -15
33 -30 74 -26 71 -29 74 -64 80 -39 6 -48 6 -73 -1z"/>
<path d="M2903 2042 c-29 -3 -33 -8 -47 -55 -22 -78 -66 -254 -66 -266 0 -12
59 -15 76 -3 7 4 14 18 15 32 3 21 10 25 45 28 39 3 41 1 50 -30 9 -31 13 -33
57 -36 34 -2 47 1 47 10 0 7 -18 80 -38 163 l-38 150 -35 5 c-19 3 -48 4 -66
2z m42 -159 c6 -38 5 -43 -12 -43 -29 0 -31 6 -20 55 12 52 22 48 32 -12z"/>
<path d="M3142 2037 c-9 -11 -12 -57 -10 -168 l3 -154 70 -3 c127 -5 180 46
180 173 0 113 -37 149 -162 161 -55 5 -71 3 -81 -9z m139 -114 c20 -53 -4
-123 -42 -123 -17 0 -19 8 -19 75 0 74 0 75 25 75 19 0 28 -8 36 -27z"/>
<path d="M3510 2030 c-53 -27 -75 -72 -75 -150 1 -112 52 -170 150 -170 60 0
107 26 131 72 25 47 24 154 -1 197 -39 66 -133 90 -205 51z m96 -78 c34 -22
44 -93 18 -130 -35 -50 -94 -12 -94 60 0 54 42 93 76 70z"/>
<path d="M3797 2043 c-4 -3 -7 -80 -7 -170 l0 -163 45 0 44 0 3 63 3 62 30
-60 c34 -68 56 -78 98 -45 l27 22 -29 51 c-29 52 -29 52 -10 76 25 30 26 101
1 131 -10 13 -36 25 -62 31 -54 10 -134 12 -143 2z m128 -103 c7 -23 -10 -50
-31 -50 -9 0 -14 12 -14 35 0 28 4 35 19 35 11 0 23 -9 26 -20z"/>
<path d="M4097 2044 c-4 -4 -7 -81 -7 -171 l0 -164 93 3 92 3 3 38 3 37 -50 0
c-47 0 -51 2 -51 24 0 21 6 25 33 28 28 3 32 7 35 36 3 31 2 32 -32 32 -31 0
-36 3 -36 24 0 23 5 25 48 28 l47 3 0 40 0 40 -85 3 c-47 1 -89 0 -93 -4z"/>
<path d="M4388 2034 c-35 -19 -48 -43 -48 -91 0 -48 20 -78 71 -104 33 -16 38
-23 29 -34 -10 -12 -18 -12 -52 2 -45 18 -58 10 -58 -39 0 -39 33 -58 103 -58
51 0 62 4 88 29 23 23 29 38 29 71 0 55 -12 74 -65 106 -25 14 -45 30 -45 34
0 13 23 17 53 9 30 -8 47 10 47 51 0 38 -97 54 -152 24z"/>
<path d="M1542 1592 c-9 -7 -12 -47 -10 -168 l3 -159 42 -3 42 -3 3 78 3 78
40 -75 40 -75 45 0 45 0 3 161 c2 161 2 162 -21 167 -12 4 -33 4 -45 0 -20 -5
-22 -11 -22 -82 l-1 -76 -39 76 c-34 66 -43 77 -71 83 -39 8 -41 8 -57 -2z"/>
<path d="M1930 1582 c-68 -36 -101 -154 -66 -235 24 -58 59 -81 129 -85 109
-6 157 46 157 170 0 45 -6 72 -20 96 -41 68 -129 91 -200 54z m103 -89 c25
-29 30 -67 13 -107 -28 -67 -96 -38 -96 41 0 67 47 105 83 66z"/>
<path d="M2294 1586 c-3 -8 -4 -27 -2 -43 2 -24 8 -28 36 -31 l32 -3 0 -125 0
-125 48 3 47 3 3 123 3 122 30 0 c29 0 30 1 27 43 l-3 42 -108 3 c-86 2 -108
0 -113 -12z"/>
<path d="M2640 1582 c-68 -36 -101 -154 -66 -235 24 -58 59 -81 129 -85 109
-6 157 46 157 170 0 45 -6 72 -20 96 -41 68 -129 91 -200 54z m103 -89 c25
-29 30 -67 13 -107 -28 -67 -96 -38 -96 41 0 67 47 105 83 66z"/>
<path d="M2922 1587 c-9 -11 -12 -57 -10 -168 l3 -154 45 0 45 0 3 48 c3 43 5
47 28 47 74 0 128 83 105 160 -15 50 -47 68 -138 76 -55 5 -71 3 -81 -9z m123
-112 c0 -20 -6 -31 -17 -33 -15 -3 -18 4 -18 33 0 29 3 36 18 33 11 -2 17 -13
17 -33z"/>
<path d="M3290 1589 c-60 -24 -92 -79 -92 -158 0 -120 52 -175 159 -169 53 3
67 8 93 33 78 74 60 242 -30 287 -38 20 -91 22 -130 7z m90 -99 c24 -24 27
-86 4 -118 -18 -26 -56 -29 -75 -5 -21 24 -18 97 5 122 24 26 40 27 66 1z"/>
</g>
</svg>
