<!DOCTYPE svg PUBLIC "-//W3C//DTD SVG 20010904//EN" "http://www.w3.org/TR/2001/REC-SVG-20010904/DTD/svg10.dtd">
<svg version="1.0" xmlns="http://www.w3.org/2000/svg" width="500px" height="500px" viewBox="0 0 5000 5000" preserveAspectRatio="xMidYMid meet">
<g id="layer101" fill="#03191e" stroke="none">
 <path d="M1547 3733 l-7 -6 0 -159 0 -159 43 3 42 3 40 75 40 75 3 -77 3 -78 39 0 40 0 0 159 0 159 -19 5 c-10 2 -30 3 -43 0 l-24 -4 -39 -77 -40 -77 -3 75 -3 74 -12 8 c-15 10 -51 10 -60 1z"/>
 <path d="M1932 3723 l-34 -16 -15 -23 c-8 -13 -19 -42 -24 -65 l-10 -42 11 -52 11 -52 28 -27 29 -28 38 -8 39 -9 25 6 c14 3 38 12 53 20 l29 14 19 42 19 42 0 50 0 50 -18 35 -17 35 -34 22 -34 23 -41 0 -41 0 -33 -17z m114 -109 l15 -37 -6 -26 c-4 -14 -14 -34 -22 -43 l-16 -18 -14 0 c-7 0 -22 9 -33 20 l-20 20 0 42 0 41 17 19 16 18 24 0 24 0 15 -36z"/>
 <path d="M2370 3616 l0 -126 -34 0 -34 0 -4 -22 c-2 -13 -2 -31 0 -40 l3 -18 110 0 110 0 -3 38 -3 37 -32 3 -32 3 -3 122 -3 122 -37 3 -38 3 0 -125z"/>
 <path d="M2642 3723 l-34 -16 -15 -23 c-8 -13 -19 -42 -24 -65 l-10 -42 11 -52 11 -52 28 -27 29 -28 38 -8 39 -9 25 6 c14 3 38 12 53 20 l29 14 19 42 19 42 0 50 0 50 -18 35 -17 35 -34 22 -34 23 -41 0 -41 0 -33 -17z m114 -109 l15 -37 -6 -26 c-4 -14 -14 -34 -22 -43 l-16 -18 -14 0 c-7 0 -22 9 -33 20 l-20 20 0 42 0 41 17 19 16 18 24 0 24 0 15 -36z"/>
 <path d="M2927 3733 l-7 -6 0 -160 0 -159 86 3 86 4 24 28 24 28 0 40 0 40 -16 30 -15 31 -34 14 c-19 8 -44 14 -55 14 l-20 0 0 44 0 44 -16 6 c-21 8 -49 8 -57 -1z m118 -208 l0 -30 -17 -3 -18 -3 0 36 0 36 18 -3 17 -3 0 -30z"/>
 <path d="M3269 3717 l-34 -22 -17 -35 -18 -35 0 -53 0 -54 16 -34 17 -35 21 -15 c11 -8 38 -19 59 -25 l37 -10 38 10 38 11 27 28 28 29 7 49 8 49 -6 41 -6 41 -16 25 -17 25 -34 17 -35 16 -40 0 -39 0 -34 -23z m115 -89 l16 -22 0 -38 0 -38 -20 -20 c-11 -11 -26 -20 -33 -20 l-14 0 -19 21 -19 21 0 43 0 42 14 16 13 17 24 0 23 0 15 -22z"/>
 <path d="M487 3283 l-7 -6 0 -160 0 -159 85 3 85 4 26 26 26 26 0 44 1 45 -12 22 -12 23 -32 19 -32 20 -22 0 -23 0 0 44 0 44 -22 6 c-30 8 -53 8 -61 -1z m123 -192 l10 -20 -6 -15 -6 -16 -19 0 -19 0 0 35 0 35 15 0 14 0 11 -19z"/>
 <path d="M777 3284 l-7 -7 0 -160 0 -159 91 4 91 3 24 28 24 28 0 30 0 30 -11 22 c-7 12 -17 25 -23 29 l-11 7 28 50 c15 27 27 54 27 60 l0 10 -31 16 -30 16 -11 -3 -10 -4 -23 -54 -23 -54 -10 -4 -11 -3 -3 58 -3 58 -35 3 -36 3 -7 -7z m123 -189 l12 -14 -7 -21 -6 -20 -20 0 -19 0 0 35 0 35 14 0 c7 0 19 -7 26 -15z"/>
 <path d="M1140 3272 l-35 -17 -23 -45 -23 -45 4 -59 5 -59 19 -25 c11 -14 31 -35 46 -46 l27 -20 48 0 47 0 31 18 31 19 19 31 19 31 0 65 0 65 -20 35 -21 35 -34 17 -35 18 -35 0 -35 0 -35 -18z m102 -89 l18 -16 0 -45 0 -45 -17 -19 -16 -18 -15 0 c-9 0 -24 7 -34 17 l-18 16 0 48 0 48 16 15 15 16 16 0 16 0 19 -17z"/>
 <path d="M1491 3272 l-35 -17 -20 -28 -20 -27 -4 -64 -4 -64 22 -40 22 -39 31 -19 32 -18 59 1 58 1 14 14 13 13 -14 31 -13 32 -45 -5 -45 -5 -21 21 -21 21 0 40 0 41 25 24 24 25 14 0 c7 0 18 -5 25 -12 l12 -12 0 -33 0 -33 30 0 30 0 0 75 0 75 -26 10 -25 10 -42 0 -42 0 -34 -18z"/>
 <path d="M1737 3284 l-7 -7 0 -160 0 -159 90 4 89 3 23 23 23 23 0 43 0 44 -17 19 c-24 26 -23 36 7 83 14 22 25 44 25 50 l0 9 -31 16 -31 16 -12 -4 -13 -5 -23 -56 -22 -56 -14 0 -13 0 -3 58 -3 57 -30 3 -31 3 -7 -7z m123 -195 l11 -20 -12 -15 c-6 -8 -18 -14 -25 -14 l-14 0 0 35 0 35 15 0 14 0 11 -21z"/>
 <path d="M2024 3282 l-11 -7 41 -155 41 -155 62 -3 62 -3 10 38 c5 21 23 92 40 158 l30 119 -12 8 c-16 10 -49 10 -65 -1 l-13 -8 -8 -29 -7 -29 -42 -3 -42 -3 -7 31 -6 32 -24 9 c-29 11 -35 11 -49 1z m152 -139 c-3 -10 -8 -35 -12 -56 l-7 -38 -7 8 c-6 8 -30 83 -30 97 l0 6 31 0 30 0 -5 -17z"/>
 <path d="M2373 3283 l-13 -5 0 -112 c0 -62 3 -134 6 -160 l7 -47 55 3 56 3 29 75 c15 41 30 76 32 78 2 2 14 -31 28 -74 l23 -79 61 -3 60 -3 6 77 c4 42 7 115 7 160 l0 84 -25 6 -25 6 -14 -5 -14 -6 -7 -88 c-3 -48 -8 -92 -9 -98 -2 -5 -17 33 -33 85 l-30 95 -29 3 -29 3 -30 -98 -30 -98 -6 30 c-4 17 -7 60 -8 96 l-1 67 -22 6 c-26 6 -28 6 -45 -1z"/>
 <path d="M2803 3282 l-11 -7 41 -158 40 -157 62 0 63 0 40 160 40 160 -25 6 -24 7 -23 -11 -23 -10 -6 -32 -7 -31 -42 3 -42 3 -8 31 -8 32 -22 6 c-29 7 -31 7 -45 -2z m142 -164 c-4 -18 -11 -37 -15 -41 l-7 -8 -11 40 -10 41 25 0 25 0 -7 -32z"/>
 <path d="M3148 3284 l-8 -7 0 -159 0 -158 70 0 71 0 29 15 c15 8 38 27 49 41 l21 27 0 69 0 70 -16 34 -17 35 -29 15 -30 15 -66 6 -67 5 -7 -8z m121 -98 c7 -8 14 -29 17 -48 l6 -33 -11 -27 -11 -28 -25 0 -25 0 0 75 0 75 19 0 19 0 11 -14z"/>
 <path d="M3530 3283 c-23 -9 -60 -45 -76 -75 l-14 -27 0 -58 0 -58 18 -35 17 -34 34 -20 34 -20 50 1 49 1 27 19 26 19 17 35 18 34 0 60 0 60 -20 33 -20 32 -32 20 -33 20 -40 -1 c-22 0 -47 -3 -55 -6z m89 -96 c6 -8 14 -28 17 -45 l6 -32 -12 -30 -12 -29 -18 -6 -17 -5 -17 6 -18 7 -9 24 c-5 13 -9 37 -9 51 l0 28 16 22 15 22 23 0 24 0 11 -13z"/>
 <path d="M3797 3284 l-7 -7 0 -160 0 -159 91 4 91 3 24 28 24 28 0 30 0 30 -11 22 c-7 12 -17 25 -23 29 l-11 7 28 50 c15 27 27 54 27 60 l0 10 -31 16 -30 16 -11 -3 -10 -4 -23 -54 -23 -54 -10 -4 -11 -3 -3 58 -3 58 -35 3 -36 3 -7 -7z m123 -189 l12 -14 -7 -21 -6 -20 -20 0 -19 0 0 35 0 35 14 0 c7 0 19 -7 26 -15z"/>
 <path d="M4097 3283 l-7 -6 0 -159 0 -158 89 0 90 0 3 18 c2 9 2 25 0 35 l-4 17 -44 0 -44 0 0 29 0 30 33 3 32 3 0 25 0 25 -32 3 -33 3 0 30 0 29 44 0 45 0 6 20 6 20 -6 20 -6 20 -83 0 -83 0 -6 -7z"/>
 <path d="M4371 3277 c-13 -6 -28 -19 -33 -27 l-10 -15 11 -27 10 -28 35 16 34 17 16 -6 c9 -4 16 -11 16 -16 l0 -10 -42 -28 -43 -29 -13 -24 -13 -25 5 -34 5 -33 17 -19 17 -19 36 -10 36 -9 38 9 c21 4 41 11 45 14 l6 6 -10 28 -10 27 -42 -3 -42 -3 0 19 0 20 30 12 30 13 26 30 26 31 -5 41 -6 40 -31 28 -30 27 -43 0 -42 0 -24 -13z"/>
 </g>
<g id="layer102" fill="#061a32" stroke="none">
 <path d="M1624 2817 l-5 -13 426 -743 427 -743 -8 -213 -7 -213 7 -26 6 -26 15 0 15 0 0 10 0 10 23 10 c12 5 67 23 122 40 55 16 106 34 114 39 l15 9 -13 15 c-7 9 -68 48 -136 89 l-125 73 0 96 0 96 126 209 c69 115 129 216 134 224 5 8 145 242 310 520 l301 504 2 21 2 20 -873 3 -873 2 -5 -13z m1699 -39 c-6 -7 -137 -226 -292 -487 l-283 -473 -55 91 -55 91 -9 0 c-5 0 -39 -41 -76 -90 -36 -50 -67 -89 -68 -88 -1 2 -28 44 -59 95 l-57 92 -12 -5 c-7 -2 -40 -43 -73 -90 l-61 -85 -51 88 c-27 48 -151 265 -275 481 l-226 392 831 0 830 0 -9 -12z m-914 -910 c25 -40 51 -81 59 -90 l15 -18 13 11 c8 6 39 47 70 90 l58 79 6 -7 c17 -20 90 -144 90 -152 0 -8 -223 -386 -235 -399 -4 -4 -235 397 -235 409 0 12 100 149 109 149 3 0 26 -33 50 -72z m176 -828 c39 -23 81 -49 94 -57 l25 -16 -95 -28 c-52 -16 -97 -29 -101 -29 l-8 0 0 91 0 90 8 -4 c4 -3 39 -24 77 -47z"/>
 </g>
<g id="layer103" fill="#152931" stroke="none">
 <path d="M2364 3610 l0 -125 3 63 c2 34 2 90 0 125 l-3 62 0 -125z"/>
 <path d="M3490 3560 l0 -13 7 6 6 7 -6 7 -7 6 0 -13z"/>
 <path d="M4515 3260 c3 -5 8 -10 11 -10 3 0 2 5 -1 10 -3 6 -8 10 -11 10 -3 0 -2 -4 1 -10z"/>
 <path d="M3474 3248 l-7 -11 11 7 c12 7 16 16 8 16 -3 0 -8 -5 -12 -12z"/>
 <path d="M3685 3250 c3 -5 8 -10 11 -10 3 0 2 5 -1 10 -3 6 -8 10 -11 10 -3 0 -2 -4 1 -10z"/>
 <path d="M1095 3000 c3 -5 8 -10 11 -10 3 0 2 5 -1 10 -3 6 -8 10 -11 10 -3 0 -2 -4 1 -10z"/>
 <path d="M3344 2998 l-7 -11 11 7 c7 4 12 9 12 12 0 8 -9 4 -16 -8z"/>
 </g>
<g id="layer104" fill="#850404" stroke="none">
 <path d="M1870 2685 c0 -10 393 -739 405 -753 l12 -14 29 41 c16 22 34 43 41 45 l12 5 57 -92 c31 -51 58 -93 59 -95 1 -1 32 38 68 88 37 49 71 90 76 90 l9 0 27 -46 27 -46 9 9 c4 4 105 180 222 391 l215 382 -634 0 -634 0 0 -5z"/>
 <path d="M2327 1907 l-25 -32 89 -165 c49 -91 92 -166 96 -167 l8 -3 89 161 89 160 -19 35 c-11 20 -22 37 -25 40 l-6 3 -57 -78 c-31 -44 -62 -84 -70 -90 l-13 -11 -15 18 c-8 9 -34 50 -59 90 -24 39 -47 72 -50 72 -4 0 -18 -15 -32 -33z"/>
 </g>
<g id="layer105" fill="#1b2d45" stroke="none">
 </g>
<g id="layer106" fill="#273a3e" stroke="none">
 <path d="M3444 3438 l-7 -11 11 7 c7 4 12 9 12 12 0 8 -9 4 -16 -8z"/>
 <path d="M3134 3125 l0 -150 3 78 c2 43 2 110 0 150 l-3 72 0 -150z"/>
 <path d="M1590 3180 l0 -13 7 6 6 7 -6 7 -7 6 0 -13z"/>
 <path d="M2441 3164 l1 -19 5 13 5 13 -6 6 -6 6 1 -19z"/>
 <path d="M4193 3153 c9 -2 25 -2 35 0 l17 5 -35 0 -35 0 18 -5z"/>
 <path d="M3381 3114 l1 -19 5 13 5 13 -6 6 -6 6 1 -19z"/>
 <path d="M2720 3040 l0 -13 7 6 6 7 -6 7 -7 6 0 -13z"/>
 <path d="M4515 3040 c3 -5 8 -10 11 -10 3 0 2 5 -1 10 -3 6 -8 10 -11 10 -3 0 -2 -4 1 -10z"/>
 <path d="M4203 3033 c15 -2 37 -2 50 0 l22 4 -50 0 -50 0 28 -4z"/>
 <path d="M2360 3000 l0 -13 7 6 6 7 -6 7 -7 6 0 -13z"/>
 </g>
<g id="layer107" fill="#2a3b49" stroke="none">
 </g>
<g id="layer108" fill="#37484f" stroke="none">
 <path d="M2105 3700 c3 -5 8 -10 11 -10 3 0 2 5 -1 10 -3 6 -8 10 -11 10 -3 0 -2 -4 1 -10z"/>
 <path d="M2815 3700 c3 -5 8 -10 11 -10 3 0 2 5 -1 10 -3 6 -8 10 -11 10 -3 0 -2 -4 1 -10z"/>
 <path d="M1895 3440 c3 -5 8 -10 11 -10 3 0 2 5 -1 10 -3 6 -8 10 -11 10 -3 0 -2 -4 1 -10z"/>
 <path d="M2605 3440 c3 -5 8 -10 11 -10 3 0 2 5 -1 10 -3 6 -8 10 -11 10 -3 0 -2 -4 1 -10z"/>
 <path d="M1813 3230 l0 -55 4 28 c2 15 2 39 0 55 l-4 27 0 -55z"/>
 <path d="M2351 3264 l1 -19 5 13 5 13 -6 6 -6 6 1 -19z"/>
 <path d="M2730 3250 l0 -13 7 6 6 7 -6 7 -7 6 0 -13z"/>
 <path d="M1592 3150 l0 -25 5 13 5 12 -5 13 -5 12 0 -25z"/>
 <path d="M3431 3124 l1 -19 5 13 5 13 -6 6 -6 6 1 -19z"/>
 <path d="M2360 2980 l0 -13 7 6 6 7 -6 7 -7 6 0 -13z"/>
 </g>
<g id="layer109" fill="#49585c" stroke="none">
 <path d="M1790 3577 l5 -162 3 154 3 154 -8 8 -8 8 5 -162z"/>
 <path d="M3003 3690 l0 -45 4 23 c2 12 2 32 0 45 l-4 22 0 -45z"/>
 <path d="M3140 3520 l0 -13 7 6 6 7 -6 7 -7 6 0 -13z"/>
 <path d="M2350 3240 l0 -13 7 6 6 7 -6 7 -7 6 0 -13z"/>
 <path d="M2640 3240 l0 -13 7 6 6 7 -6 7 -7 6 0 -13z"/>
 <path d="M2730 3230 l0 -13 7 6 6 7 -6 7 -7 6 0 -13z"/>
 <path d="M2441 3204 l1 -19 5 13 5 13 -6 6 -6 6 1 -19z"/>
 <path d="M2120 3150 l0 -13 7 6 6 7 -6 7 -7 6 0 -13z"/>
 <path d="M3730 3120 l0 -13 7 6 6 7 -6 7 -7 6 0 -13z"/>
 <path d="M2720 3010 l0 -13 7 6 6 7 -6 7 -7 6 0 -13z"/>
 <path d="M2464 1225 l0 -100 3 53 c2 29 2 74 0 100 l-3 47 0 -100z"/>
 </g>
<g id="layer110" fill="#59686e" stroke="none">
 <path d="M2350 3220 l0 -13 7 6 6 7 -6 7 -7 6 0 -13z"/>
 <path d="M3730 3140 l0 -13 7 6 6 7 -6 7 -7 6 0 -13z"/>
 <path d="M2720 2990 l0 -13 7 6 6 7 -6 7 -7 6 0 -13z"/>
 <path d="M2413 2953 l7 -6 7 6 6 7 -13 0 -13 0 6 -7z"/>
 </g>
<g id="layer111" fill="#687679" stroke="none">
 <path d="M1534 3570 l0 -165 3 83 c2 45 2 119 0 165 l-3 82 0 -165z"/>
 <path d="M2454 3615 l0 -120 3 63 c2 34 2 88 0 120 l-3 57 0 -120z"/>
 <path d="M3105 3610 c3 -5 8 -10 11 -10 3 0 2 5 -1 10 -3 6 -8 10 -11 10 -3 0 -2 -4 1 -10z"/>
 <path d="M1553 3403 l7 -6 7 6 6 7 -13 0 -13 0 6 -7z"/>
 <path d="M1748 3403 l13 -5 6 6 6 6 -19 -1 -19 -1 13 -5z"/>
 <path d="M2353 3403 c32 -2 81 -2 110 0 l52 3 -110 0 -110 0 58 -3z"/>
 <path d="M2953 3403 c15 -2 37 -2 50 0 l22 4 -50 0 -50 0 28 -4z"/>
 <path d="M2440 3240 l0 -13 7 6 6 7 -6 7 -7 6 0 -13z"/>
 <path d="M2138 3213 c12 -2 30 -2 40 0 l17 5 -40 -1 -40 0 23 -4z"/>
 <path d="M2908 3213 c12 -2 30 -2 40 0 l17 5 -40 -1 -40 0 23 -4z"/>
 <path d="M2730 3200 l0 -13 7 6 6 7 -6 7 -7 6 0 -13z"/>
 <path d="M1662 3165 l0 -30 5 18 c2 9 2 23 0 30 l-5 12 0 -30z"/>
 <path d="M513 2953 c15 -2 37 -2 50 0 l22 4 -50 0 -50 0 28 -4z"/>
 <path d="M803 2953 c15 -2 39 -2 55 0 l27 4 -55 0 -55 0 28 -4z"/>
 <path d="M1763 2953 c15 -2 39 -2 55 0 l27 4 -55 0 -55 0 28 -4z"/>
 <path d="M2633 2953 l7 -6 7 6 6 7 -13 0 -13 0 6 -7z"/>
 <path d="M2663 2953 l7 -6 7 6 6 7 -13 0 -13 0 6 -7z"/>
 <path d="M3173 2953 c15 -2 37 -2 50 0 l22 4 -50 0 -50 0 28 -4z"/>
 <path d="M3823 2953 c15 -2 39 -2 55 0 l27 4 -55 0 -55 0 28 -4z"/>
 <path d="M4143 2953 c26 -2 67 -2 90 0 l42 4 -90 -1 -90 0 48 -3z"/>
 </g>
<g id="layer112" fill="#717d85" stroke="none">
 <path d="M2914 3575 l0 -160 3 83 c2 46 2 118 0 160 l-3 77 0 -160z"/>
 <path d="M3190 3570 l0 -13 7 6 6 7 -6 7 -7 6 0 -13z"/>
 <path d="M1660 3200 l0 -13 7 6 6 7 -6 7 -7 6 0 -13z"/>
 <path d="M1400 3120 l0 -13 7 6 6 7 -6 7 -7 6 0 -13z"/>
 <path d="M2148 2953 l12 -5 13 5 12 5 -25 0 -25 0 13 -5z"/>
 <path d="M2928 2953 l13 -5 6 6 6 6 -19 -1 -19 -1 13 -5z"/>
 </g>
<g id="layer113" fill="#7a858a" stroke="none">
 <path d="M1005 3260 c3 -5 8 -10 11 -10 3 0 2 5 -1 10 -3 6 -8 10 -11 10 -3 0 -2 -4 1 -10z"/>
 <path d="M4025 3260 c3 -5 8 -10 11 -10 3 0 2 5 -1 10 -3 6 -8 10 -11 10 -3 0 -2 -4 1 -10z"/>
 <path d="M1661 3224 l1 -19 5 13 5 13 -6 6 -6 6 1 -19z"/>
 <path d="M2138 3153 l12 -5 13 5 12 5 -25 0 -25 0 13 -5z"/>
 <path d="M2123 2953 l7 -6 7 6 6 7 -13 0 -13 0 6 -7z"/>
 <path d="M2183 2953 l7 -6 7 6 6 7 -13 0 -13 0 6 -7z"/>
 <path d="M2903 2953 l7 -6 7 6 6 7 -13 0 -13 0 6 -7z"/>
 <path d="M2953 2953 l7 -6 7 6 6 7 -13 0 -13 0 6 -7z"/>
 </g>
<g id="layer114" fill="#8a9498" stroke="none">
 <path d="M1998 3743 l13 -5 6 6 6 6 -19 -1 -19 -1 13 -5z"/>
 <path d="M2708 3743 l13 -5 6 6 6 6 -19 -1 -19 -1 13 -5z"/>
 <path d="M3338 3743 l13 -5 6 6 6 6 -19 -1 -19 -1 13 -5z"/>
 <path d="M2151 3574 l1 -19 5 13 5 13 -6 6 -6 6 1 -19z"/>
 <path d="M2861 3574 l1 -19 5 13 5 13 -6 6 -6 6 1 -19z"/>
 <path d="M2520 3450 l0 -13 7 6 6 7 -6 7 -7 6 0 -13z"/>
 <path d="M2104 3438 l-7 -11 11 7 c12 7 16 16 8 16 -3 0 -8 -5 -12 -12z"/>
 <path d="M2814 3438 l-7 -11 11 7 c7 4 12 9 12 12 0 8 -9 4 -16 -8z"/>
 <path d="M1203 3293 l7 -6 7 6 6 7 -13 0 -13 0 6 -7z"/>
 <path d="M1553 3293 l7 -6 7 6 6 7 -13 0 -13 0 6 -7z"/>
 <path d="M3578 3293 l13 -5 6 6 6 6 -19 -1 -19 -1 13 -5z"/>
 <path d="M4433 3293 l7 -6 7 6 6 7 -13 0 -13 0 6 -7z"/>
 <path d="M1661 3254 l1 -19 5 13 5 13 -6 6 -6 6 1 -19z"/>
 <path d="M573 3193 l7 -6 7 6 6 7 -13 0 -13 0 6 -7z"/>
 <path d="M2350 3170 l0 -13 7 6 6 7 -6 7 -7 6 0 -13z"/>
 <path d="M2730 3170 l0 -13 7 6 6 7 -6 7 -7 6 0 -13z"/>
 <path d="M1500 3120 l0 -13 7 6 6 7 -6 7 -7 6 0 -13z"/>
 <path d="M593 2953 l7 -6 7 6 6 7 -13 0 -13 0 6 -7z"/>
 <path d="M1853 2953 l7 -6 7 6 6 7 -13 0 -13 0 6 -7z"/>
 <path d="M2883 2953 l7 -6 7 6 6 7 -13 0 -13 0 6 -7z"/>
 <path d="M2973 2953 l7 -6 7 6 6 7 -13 0 -13 0 6 -7z"/>
 </g>
<g id="layer115" fill="#939ca4" stroke="none">
 </g>
<g id="layer116" fill="#9ca4a8" stroke="none">
 <path d="M3235 3440 c3 -5 8 -10 11 -10 3 0 2 5 -1 10 -3 6 -8 10 -11 10 -3 0 -2 -4 1 -10z"/>
 <path d="M1573 3293 l7 -6 7 6 6 7 -13 0 -13 0 6 -7z"/>
 <path d="M4413 3293 l7 -6 7 6 6 7 -13 0 -13 0 6 -7z"/>
 <path d="M4203 3203 c15 -2 37 -2 50 0 l22 4 -50 0 -50 0 28 -4z"/>
 <path d="M2350 3150 l0 -13 7 6 6 7 -6 7 -7 6 0 -13z"/>
 <path d="M2625 3120 c3 -5 8 -10 11 -10 3 0 2 5 -1 10 -3 6 -8 10 -11 10 -3 0 -2 -4 1 -10z"/>
 </g>
<g id="layer117" fill="#acb3b6" stroke="none">
 <path d="M474 3125 l0 -160 3 83 c2 46 2 118 0 160 l-3 77 0 -160z"/>
 <path d="M1724 3125 l0 -160 3 83 c2 46 2 118 0 160 l-3 77 0 -160z"/>
 <path d="M4084 3120 l0 -165 3 83 c2 45 2 119 0 165 l-3 82 0 -165z"/>
 <path d="M1965 3260 c3 -5 8 -10 11 -10 3 0 2 5 -1 10 -3 6 -8 10 -11 10 -3 0 -2 -4 1 -10z"/>
 <path d="M2730 3140 l0 -13 7 6 6 7 -6 7 -7 6 0 -13z"/>
 <path d="M2350 3130 l0 -13 7 6 6 7 -6 7 -7 6 0 -13z"/>
 <path d="M1050 3120 l0 -13 7 6 6 7 -6 7 -7 6 0 -13z"/>
 <path d="M2994 2958 l-7 -11 11 7 c7 4 12 9 12 12 0 8 -9 4 -16 -8z"/>
 </g>
<g id="layer118" fill="#000000" stroke="none">
 <path d="M2403 3743 l7 -6 7 6 6 7 -13 0 -13 0 6 -7z"/>
 <path d="M1623 3665 l0 -70 4 38 c2 20 2 52 0 70 l-4 32 0 -70z"/>
 <path d="M1701 3545 c-2 -5 -2 -37 -1 -70 l1 -60 7 -7 7 -7 -3 52 c-3 66 -8 105 -11 92z"/>
 <path d="M943 3293 l7 -6 7 6 6 7 -13 0 -13 0 6 -7z"/>
 <path d="M3963 3293 l7 -6 7 6 6 7 -13 0 -13 0 6 -7z"/>
 <path d="M3080 3280 l0 -13 7 6 6 7 -6 7 -7 6 0 -13z"/>
 <path d="M4515 3270 c3 -5 8 -10 11 -10 3 0 2 5 -1 10 -3 6 -8 10 -11 10 -3 0 -2 -4 1 -10z"/>
 <path d="M3345 3250 c3 -5 8 -10 11 -10 3 0 2 5 -1 10 -3 6 -8 10 -11 10 -3 0 -2 -4 1 -10z"/>
 <path d="M2631 3144 l1 -19 5 13 5 13 -6 6 -6 6 1 -19z"/>
 <path d="M965 3140 c3 -5 8 -10 11 -10 3 0 2 5 -1 10 -3 6 -8 10 -11 10 -3 0 -2 -4 1 -10z"/>
 <path d="M1050 3140 l0 -13 7 6 6 7 -6 7 -7 6 0 -13z"/>
 <path d="M3985 3140 c3 -5 8 -10 11 -10 3 0 2 5 -1 10 -3 6 -8 10 -11 10 -3 0 -2 -4 1 -10z"/>
 <path d="M1361 3124 l1 -19 5 13 5 13 -6 6 -6 6 1 -19z"/>
 <path d="M2730 3120 l0 -13 7 6 6 7 -6 7 -7 6 0 -13z"/>
 <path d="M2352 3100 l0 -25 5 13 5 12 -5 13 -5 12 0 -25z"/>
 <path d="M1050 3100 l0 -13 7 6 6 7 -6 7 -7 6 0 -13z"/>
 <path d="M2145 3080 c3 -5 8 -10 11 -10 3 0 2 5 -1 10 -3 6 -8 10 -11 10 -3 0 -2 -4 1 -10z"/>
 <path d="M4203 3083 c9 -2 23 -2 30 0 l12 5 -30 0 -30 0 18 -5z"/>
 <path d="M4331 3054 l1 -19 5 13 5 13 -6 6 -6 6 1 -19z"/>
 <path d="M1568 3043 l13 -5 6 6 6 6 -19 -1 -19 -1 13 -5z"/>
 <path d="M1095 2990 c3 -5 8 -10 11 -10 3 0 2 5 -1 10 -3 6 -8 10 -11 10 -3 0 -2 -4 1 -10z"/>
 <path d="M1314 2988 l-7 -11 11 7 c12 7 16 16 8 16 -3 0 -8 -5 -12 -12z"/>
 <path d="M1445 2990 c3 -5 8 -10 11 -10 3 0 2 5 -1 10 -3 6 -8 10 -11 10 -3 0 -2 -4 1 -10z"/>
 <path d="M2504 1230 l0 -95 3 48 c2 26 2 68 0 95 l-3 47 0 -95z"/>
 </g>
<g id="layer119" fill="#e2dcdd" stroke="none">
 <path d="M2313 3493 c9 -2 25 -2 35 0 l17 5 -35 0 -35 0 18 -5z"/>
 <path d="M2473 3493 c9 -2 23 -2 30 0 l12 5 -30 0 -30 0 18 -5z"/>
 <path d="M4250 3120 l0 -13 7 6 6 7 -6 7 -7 6 0 -13z"/>
 <path d="M2730 3100 l0 -13 7 6 6 7 -6 7 -7 6 0 -13z"/>
 <path d="M4444 3058 l-7 -11 11 7 c7 4 12 9 12 12 0 8 -9 4 -16 -8z"/>
 </g>
<g id="layer120" fill="#fefefe" stroke="none">
 <path d="M1967 3632 l-17 -19 0 -41 0 -42 20 -20 c11 -11 26 -20 33 -20 l14 0 16 18 c8 9 18 29 22 43 l6 26 -15 37 -15 36 -24 0 -24 0 -16 -18z"/>
 <path d="M2677 3632 l-17 -19 0 -41 0 -42 20 -20 c11 -11 26 -20 33 -20 l14 0 16 18 c8 9 18 29 22 43 l6 26 -15 37 -15 36 -24 0 -24 0 -16 -18z"/>
 <path d="M3309 3633 l-14 -16 0 -42 0 -43 19 -21 19 -21 14 0 c7 0 22 9 33 20 l20 20 0 38 0 38 -16 22 -15 22 -23 0 -24 0 -13 -17z"/>
 <path d="M3010 3525 l0 -36 18 3 17 3 0 30 0 30 -17 3 -18 3 0 -36z"/>
 <path d="M1176 3184 l-16 -15 0 -48 0 -48 18 -16 c10 -10 25 -17 34 -17 l15 0 16 18 17 19 0 45 0 45 -18 16 -19 17 -16 0 -16 0 -15 -16z"/>
 <path d="M3220 3125 l0 -75 25 0 25 0 11 28 11 27 -6 33 c-3 19 -10 40 -17 48 l-11 14 -19 0 -19 0 0 -75z"/>
 <path d="M3546 3178 l-16 -22 0 -28 c0 -14 4 -38 9 -51 l9 -24 18 -7 17 -6 17 5 18 6 12 29 12 30 -6 32 c-3 17 -11 37 -17 45 l-11 13 -24 0 -23 0 -15 -22z"/>
 <path d="M2136 3123 c4 -16 11 -32 15 -37 l9 -10 0 21 c0 12 3 28 6 37 l6 16 -21 0 -21 0 6 -27z"/>
 <path d="M2912 3109 l11 -40 7 8 c4 4 11 23 15 41 l7 32 -25 0 -25 0 10 -41z"/>
 <path d="M570 3075 l0 -35 19 0 19 0 6 16 6 15 -10 20 -11 19 -14 0 -15 0 0 -35z"/>
 <path d="M860 3075 l0 -35 19 0 20 0 6 20 7 21 -12 14 c-7 8 -19 15 -26 15 l-14 0 0 -35z"/>
 <path d="M1820 3075 l0 -35 14 0 c7 0 19 6 25 14 l12 15 -11 20 -11 21 -14 0 -15 0 0 -35z"/>
 <path d="M3880 3075 l0 -35 19 0 20 0 6 20 7 21 -12 14 c-7 8 -19 15 -26 15 l-14 0 0 -35z"/>
 <path d="M1897 2398 c124 -216 248 -432 275 -481 l51 -87 30 40 30 41 -26 47 c-13 26 -106 199 -206 384 -99 185 -181 339 -181 342 l0 6 634 0 634 0 -220 -392 -220 -393 23 -42 23 -43 8 8 c3 4 135 222 292 485 l285 477 -829 0 -829 0 226 -392z"/>
 <path d="M2276 1836 c-14 -19 -26 -39 -26 -45 0 -11 231 -413 235 -409 11 12 235 391 235 398 0 9 -40 80 -45 80 -1 0 -43 -72 -91 -160 -49 -88 -92 -160 -96 -160 -3 0 -36 56 -72 124 -37 69 -77 143 -90 166 l-23 41 -27 -35z"/>
 <path d="M2205 1770 c3 -5 8 -10 11 -10 3 0 2 5 -1 10 -3 6 -8 10 -11 10 -3 0 -2 -4 1 -10z"/>
 <path d="M2500 1001 l0 -91 8 0 c4 0 49 13 101 29 l95 28 -25 16 c-19 12 -142 86 -171 104 l-8 4 0 -90z"/>
 <path d="M2733 933 l7 -6 7 6 6 7 -13 0 -13 0 6 -7z"/>
 <path d="M2633 903 l7 -6 7 6 6 7 -13 0 -13 0 6 -7z"/>
 <path d="M2533 873 l7 -6 7 6 6 7 -13 0 -13 0 6 -7z"/>
 </g>

</svg>