<!DOCTYPE svg PUBLIC "-//W3C//DTD SVG 20010904//EN" "http://www.w3.org/TR/2001/REC-SVG-20010904/DTD/svg10.dtd">
<svg version="1.0" xmlns="http://www.w3.org/2000/svg" width="500px" height="500px" viewBox="0 0 5000 5000" preserveAspectRatio="xMidYMid meet">
<g id="layer101" fill="#8257e5" stroke="none">
<path d="M1905 3684 c-11 -3 -29 -7 -41 -9 -11 -3 -33 -17 -47 -31 -22 -21 -27 -36 -27 -73 0 -81 50 -121 150 -121 97 0 153 42 153 113 0 52 -15 82 -51 101 -31 16 -107 27 -137 20z"/>
<path d="M2683 3681 c-18 -5 -44 -16 -57 -25 -44 -28 -54 -117 -17 -160 55 -64 219 -61 265 5 19 28 21 107 3 130 -33 43 -125 67 -194 50z"/>
<path d="M3383 3681 c-18 -5 -44 -16 -57 -25 -44 -28 -54 -117 -17 -160 55 -64 219 -61 265 5 19 28 21 107 3 130 -33 43 -125 67 -194 50z"/>
<path d="M1450 3565 c0 -115 0 -115 24 -115 18 0 45 24 103 86 l78 87 5 -84 c5 -76 7 -84 25 -84 19 0 20 8 23 113 l3 112 -33 -1 c-29 0 -43 -12 -108 -86 l-75 -85 -3 86 c-3 78 -5 86 -22 86 -19 0 -20 -7 -20 -115z"/>
<path d="M2400 3591 l0 -90 -52 -3 c-46 -3 -53 -6 -56 -25 -3 -23 -3 -23 127 -23 l131 0 0 25 c0 24 -3 25 -55 25 l-55 0 0 90 c0 83 -1 90 -20 90 -19 0 -20 -7 -20 -89z"/>
<path d="M2980 3564 l0 -116 105 4 c122 4 140 14 140 79 0 62 -27 79 -126 79 l-79 0 0 35 c0 28 -4 35 -20 35 -19 0 -20 -7 -20 -116z"/>
<path d="M1033 3331 c-18 -5 -44 -16 -57 -25 -44 -28 -54 -117 -17 -160 55 -64 219 -61 265 5 19 28 21 107 3 130 -33 43 -125 67 -194 50z"/>
<path d="M1415 3334 c-49 -12 -77 -29 -90 -55 -29 -54 -14 -124 33 -155 33 -22 130 -30 175 -15 38 13 81 57 71 72 -7 13 -44 11 -44 -2 0 -14 -63 -39 -98 -39 -47 0 -88 19 -101 46 -16 37 -14 52 14 79 20 21 34 25 82 25 40 0 67 -6 83 -17 l25 -18 -45 -5 c-32 -4 -46 -10 -48 -22 -3 -16 5 -18 67 -18 l71 0 0 60 c0 45 -4 60 -14 60 -8 0 -16 -5 -18 -11 -3 -9 -10 -9 -23 -2 -24 13 -112 23 -140 17z"/>
<path d="M3543 3329 c-99 -23 -128 -151 -45 -205 69 -45 217 -22 248 39 18 34 14 98 -7 123 -33 40 -123 60 -196 43z"/>
<path d="M4555 3325 c-40 -14 -65 -38 -65 -62 0 -20 33 -16 53 7 14 16 29 20 84 20 125 0 126 -35 2 -51 -95 -12 -128 -26 -135 -54 -9 -35 12 -63 54 -75 92 -25 203 0 210 48 3 16 -2 22 -16 22 -11 0 -22 -6 -25 -14 -12 -31 -177 -31 -177 -1 0 16 17 22 95 31 68 8 106 20 117 37 16 25 8 66 -14 81 -35 23 -136 29 -183 11z"/>
<path d="M280 3214 l0 -116 105 4 c122 4 140 14 140 79 0 62 -27 79 -126 79 l-79 0 0 35 c0 28 -4 35 -20 35 -19 0 -20 -7 -20 -116z"/>
<path d="M600 3215 l0 -115 99 0 c99 0 149 10 163 33 12 19 9 65 -5 79 -11 10 -11 16 0 38 7 14 13 37 13 53 0 22 -4 27 -24 27 -21 0 -25 -5 -28 -37 l-3 -38 -82 -3 -83 -3 0 41 c0 36 -2 40 -25 40 l-25 0 0 -115z"/>
<path d="M1700 3214 l0 -116 116 4 c108 3 117 5 135 27 23 28 25 64 4 81 -10 8 -12 18 -6 29 4 9 11 33 14 54 5 34 4 37 -19 37 -19 0 -24 -5 -24 -24 0 -52 -6 -56 -96 -56 l-84 0 0 40 c0 33 -3 40 -20 40 -19 0 -20 -7 -20 -116z"/>
<path d="M2010 3324 c0 -3 28 -55 61 -115 79 -143 83 -142 166 9 59 108 61 112 38 112 -14 0 -29 -9 -35 -20 -9 -17 -21 -20 -90 -20 -70 0 -79 2 -85 20 -4 13 -15 20 -31 20 -13 0 -24 -3 -24 -6z"/>
<path d="M2350 3215 l0 -115 29 0 c25 0 34 10 82 90 30 49 57 89 61 87 4 -1 31 -40 60 -87 43 -69 58 -86 81 -88 l27 -3 0 115 c0 109 -1 116 -20 116 -17 0 -19 -8 -22 -81 l-3 -81 -49 81 c-41 68 -53 81 -75 81 -22 0 -34 -14 -76 -83 l-50 -82 -3 83 c-3 74 -5 82 -22 82 -19 0 -20 -7 -20 -115z"/>
<path d="M2752 3322 c2 -4 30 -56 62 -115 78 -142 82 -141 163 6 58 106 61 112 40 115 -14 3 -27 -4 -35 -17 -13 -18 -24 -21 -93 -21 -69 0 -78 2 -84 20 -4 13 -15 20 -32 20 -13 0 -23 -4 -21 -8z"/>
<path d="M3100 3215 l0 -118 103 5 c147 7 176 26 177 119 0 47 -4 59 -26 80 -23 22 -35 24 -140 27 l-114 4 0 -117z"/>
<path d="M3840 3214 l0 -116 116 4 c108 3 117 5 135 27 23 28 25 64 4 81 -10 8 -12 18 -6 29 4 9 11 33 14 54 5 34 4 37 -19 37 -19 0 -24 -5 -24 -24 0 -52 -6 -56 -96 -56 l-84 0 0 40 c0 33 -3 40 -20 40 -19 0 -20 -7 -20 -116z"/>
<path d="M4190 3215 l0 -115 120 0 c113 0 120 1 120 20 0 19 -7 20 -100 20 l-100 0 0 30 0 30 90 0 c83 0 90 1 90 20 0 19 -7 20 -90 20 -89 0 -90 0 -90 25 l0 25 100 0 c93 0 100 1 100 20 0 19 -7 20 -120 20 l-120 0 0 -115z"/>
</g>
<g id="layer102" fill="#d9cbf7" stroke="none">
<path d="M1452 3568 c3 -106 4 -113 24 -116 15 -2 42 20 100 84 l79 88 5 -85 c4 -69 8 -84 23 -87 15 -3 17 7 17 112 0 114 0 116 -22 116 -16 1 -48 -26 -105 -87 l-82 -88 -1 88 c0 81 -1 87 -20 87 -20 0 -21 -5 -18 -112z"/>
<path d="M2400 3585 l0 -95 -56 0 c-47 0 -55 -3 -52 -17 3 -16 19 -18 131 -21 122 -2 127 -2 127 18 0 18 -6 20 -55 20 l-55 0 0 95 c0 88 -1 95 -20 95 -19 0 -20 -7 -20 -95z"/>
<path d="M2980 3570 l0 -110 101 0 c124 0 139 7 139 63 0 70 -15 81 -114 86 l-86 3 0 34 c0 27 -4 34 -20 34 -19 0 -20 -7 -20 -110z m200 -19 c13 -25 13 -27 -6 -45 -11 -12 -35 -16 -85 -16 l-69 0 0 40 0 40 75 0 c63 0 76 -3 85 -19z"/>
<path d="M1412 3330 c-81 -12 -125 -96 -88 -167 43 -85 261 -80 274 6 4 27 -15 27 -43 1 -41 -39 -147 -38 -186 1 -25 25 -24 60 2 93 18 23 27 26 83 26 39 0 69 -6 84 -16 34 -23 27 -34 -23 -34 -33 0 -45 -4 -45 -15 0 -12 14 -15 70 -15 l70 0 0 60 c0 47 -3 60 -15 60 -8 0 -15 -5 -15 -11 0 -7 -8 -9 -22 -4 -48 14 -105 20 -146 15z"/>
<path d="M4600 3332 c-51 -6 -70 -13 -90 -34 -39 -42 -11 -69 30 -28 16 16 33 20 94 20 73 0 99 -11 79 -31 -6 -6 -43 -15 -84 -20 -96 -14 -128 -26 -135 -54 -14 -57 52 -92 159 -82 65 6 107 28 107 57 0 25 -28 26 -46 3 -10 -14 -28 -18 -88 -18 -76 0 -109 12 -84 32 7 5 51 15 97 21 90 13 121 30 121 67 0 38 -22 56 -80 63 -30 4 -66 6 -80 4z"/>
<path d="M280 3220 l0 -110 101 0 c124 0 139 7 139 63 0 70 -15 81 -114 86 l-86 3 0 34 c0 27 -4 34 -20 34 -19 0 -20 -7 -20 -110z m200 -19 c13 -25 13 -27 -6 -45 -11 -12 -35 -16 -85 -16 l-69 0 0 40 0 40 75 0 c63 0 76 -3 85 -19z"/>
<path d="M600 3220 l0 -110 119 0 c113 0 121 1 135 22 20 28 20 62 2 77 -13 11 -13 17 0 46 22 53 19 75 -11 75 -22 0 -25 -4 -25 -35 0 -43 -23 -55 -111 -55 l-59 0 0 45 c0 41 -2 45 -25 45 l-25 0 0 -110z m228 -47 c4 -28 -20 -35 -113 -31 -68 3 -70 4 -73 31 l-3 28 93 -3 c87 -3 93 -4 96 -25z"/>
<path d="M1700 3220 l0 -111 122 3 123 3 13 28 c11 23 11 32 -3 59 -10 21 -12 35 -5 42 5 5 10 27 10 48 0 31 -4 38 -20 38 -16 0 -20 -7 -20 -35 0 -45 -27 -57 -114 -53 l-61 3 -3 43 c-3 34 -7 42 -23 42 -18 0 -19 -8 -19 -110z m224 -36 c13 -33 -13 -44 -100 -44 l-84 0 0 30 0 30 89 0 c73 0 90 -3 95 -16z"/>
<path d="M2010 3325 c0 -2 28 -54 61 -113 79 -139 84 -139 162 2 31 57 57 106 57 110 0 15 -40 4 -50 -14 -9 -17 -21 -20 -88 -20 -66 0 -79 3 -90 20 -10 17 -52 29 -52 15z m173 -122 c-15 -27 -27 -49 -29 -51 -3 -4 -54 82 -54 91 0 4 24 7 54 7 l55 0 -26 -47z"/>
<path d="M2350 3220 c0 -93 3 -112 16 -117 27 -10 46 9 99 95 28 45 54 81 58 79 5 -1 32 -41 60 -87 43 -69 58 -86 80 -88 l27 -3 0 115 c0 109 -1 116 -20 116 -17 0 -19 -8 -22 -82 l-3 -82 -50 82 c-68 112 -82 112 -150 -4 l-50 -85 -3 85 c-3 78 -5 86 -22 86 -19 0 -20 -7 -20 -110z"/>
<path d="M2778 3278 c16 -29 43 -78 61 -109 30 -55 63 -79 78 -56 5 7 33 57 64 112 52 93 55 100 35 103 -13 3 -26 -4 -34 -17 -13 -18 -24 -21 -93 -21 -69 0 -78 2 -84 20 -4 13 -15 20 -31 20 l-25 0 29 -52z m146 -75 c-15 -27 -28 -50 -30 -51 -1 -2 -14 19 -28 47 l-26 51 56 0 56 0 -28 -47z"/>
<path d="M3840 3220 l0 -111 122 3 123 3 13 28 c11 23 11 32 -3 59 -10 21 -12 35 -5 42 5 5 10 27 10 48 0 31 -4 38 -20 38 -16 0 -20 -7 -20 -35 0 -45 -27 -57 -114 -53 l-61 3 -3 43 c-3 34 -7 42 -23 42 -18 0 -19 -8 -19 -110z m224 -36 c13 -33 -13 -44 -100 -44 l-84 0 0 30 0 30 89 0 c73 0 90 -3 95 -16z"/>
<path d="M4192 3218 l3 -113 118 -3 c112 -3 117 -2 117 18 0 19 -6 20 -100 20 l-100 0 0 30 0 30 90 0 c83 0 90 1 90 20 0 19 -7 20 -90 20 -89 0 -90 0 -90 25 l0 25 100 0 c93 0 100 1 100 20 0 19 -7 20 -120 20 l-121 0 3 -112z"/>
</g>
<g id="layer103" fill="#e4dbfa" stroke="none">
<path d="M1450 3570 l0 -110 28 0 c21 1 43 19 107 92 l80 91 3 -92 c2 -72 6 -91 17 -91 12 0 15 20 15 110 0 109 0 110 -23 110 -17 0 -46 -25 -103 -90 l-79 -89 -3 89 c-2 82 -5 90 -22 90 -19 0 -20 -7 -20 -110z"/>
<path d="M2408 3588 l-3 -93 -52 -3 c-38 -2 -53 -7 -53 -18 0 -11 23 -14 125 -14 104 0 125 2 125 15 0 12 -13 15 -55 15 l-55 0 0 95 c0 77 -3 95 -15 95 -11 0 -15 -19 -17 -92z"/>
<path d="M607 3263 c-4 -38 -7 -87 -7 -110 l0 -43 119 0 c113 0 121 1 135 22 20 28 20 62 1 78 -11 9 -12 17 -5 30 6 10 10 35 10 54 0 29 -4 36 -20 36 -16 0 -20 -7 -20 -33 0 -49 -14 -57 -102 -57 l-78 0 0 45 c0 31 -4 45 -14 45 -9 0 -15 -21 -19 -67z m221 -90 c4 -28 -20 -35 -113 -31 -68 3 -70 4 -73 31 l-3 28 93 -3 c87 -3 93 -4 96 -25z"/>
<path d="M1373 3315 c-39 -17 -54 -44 -55 -97 -1 -54 27 -90 83 -105 74 -20 178 3 193 42 9 24 8 25 -14 25 -11 0 -20 -4 -20 -8 0 -16 -51 -32 -104 -32 -69 0 -106 26 -106 75 0 18 8 43 18 55 35 43 168 35 192 -11 10 -17 7 -19 -35 -19 -33 0 -45 -4 -45 -15 0 -12 14 -15 65 -15 l65 0 0 60 c0 47 -3 60 -15 60 -8 0 -15 -7 -15 -15 0 -18 -1 -18 -36 0 -36 19 -128 19 -171 0z"/>
<path d="M1700 3220 l0 -111 122 3 123 3 13 28 c11 23 11 32 -3 59 -10 21 -12 35 -5 42 5 5 10 27 10 48 0 31 -4 38 -20 38 -16 0 -20 -7 -20 -33 0 -49 -14 -57 -102 -57 l-78 0 0 45 c0 38 -3 45 -20 45 -19 0 -20 -7 -20 -110z m224 -36 c13 -33 -13 -44 -100 -44 l-84 0 0 30 0 30 89 0 c73 0 90 -3 95 -16z"/>
<path d="M2061 3233 c63 -119 66 -123 94 -123 18 0 32 20 79 110 51 97 55 110 37 110 -11 0 -22 -9 -26 -20 -6 -18 -15 -20 -90 -20 -74 0 -86 2 -95 20 -6 11 -20 20 -31 20 -18 0 -14 -11 32 -97z m122 -30 c-15 -27 -27 -49 -29 -51 -3 -4 -54 82 -54 91 0 4 24 7 54 7 l55 0 -26 -47z"/>
<path d="M2360 3220 c0 -109 0 -110 24 -110 19 0 34 17 77 90 30 49 56 90 59 90 3 0 30 -40 60 -90 48 -78 59 -90 83 -90 l27 0 0 110 c0 103 -1 110 -20 110 -17 0 -20 -8 -22 -85 l-3 -84 -51 82 c-69 112 -78 112 -145 0 l-54 -88 -3 88 c-2 68 -6 87 -17 87 -12 0 -15 -20 -15 -110z"/>
<path d="M2810 3223 c51 -96 60 -108 84 -108 24 0 33 11 81 100 30 55 54 103 55 108 1 17 -39 5 -45 -13 -6 -18 -15 -20 -90 -20 -74 0 -86 2 -95 20 -6 11 -19 20 -29 20 -16 0 -10 -16 39 -107z m114 -20 c-15 -27 -28 -50 -30 -51 -1 -2 -14 19 -28 47 l-26 51 56 0 56 0 -28 -47z"/>
<path d="M3840 3220 l0 -111 122 3 123 3 13 28 c11 23 11 32 -3 59 -10 21 -12 35 -5 42 5 5 10 27 10 48 0 31 -4 38 -20 38 -16 0 -20 -7 -20 -33 0 -49 -14 -57 -102 -57 l-78 0 0 45 c0 38 -3 45 -20 45 -19 0 -20 -7 -20 -110z m224 -36 c13 -33 -13 -44 -100 -44 l-84 0 0 30 0 30 89 0 c73 0 90 -3 95 -16z"/>
<path d="M4200 3220 l0 -110 115 0 c96 0 115 3 115 15 0 12 -18 15 -100 15 l-100 0 0 35 0 35 85 0 c69 0 85 3 85 15 0 12 -16 15 -85 15 l-85 0 0 30 0 30 100 0 c82 0 100 3 100 15 0 12 -19 15 -115 15 l-115 0 0 -110z"/>
<path d="M4533 3310 c-18 -11 -33 -27 -33 -35 0 -20 19 -19 42 2 37 34 178 25 178 -11 0 -18 -15 -23 -92 -32 -95 -10 -128 -26 -128 -63 0 -46 30 -61 126 -61 67 0 86 4 108 21 26 21 35 49 15 49 -6 0 -22 -9 -36 -20 -32 -25 -138 -28 -169 -6 -30 23 -8 35 86 47 46 5 91 14 101 20 41 21 30 81 -17 99 -45 18 -146 12 -181 -10z"/>
</g>
<g id="layer104" fill="#fefdff" stroke="none">
<path d="M1460 3570 c0 -98 2 -110 18 -110 9 -1 56 41 104 92 l87 93 1 -92 c0 -76 3 -93 15 -93 12 0 15 19 15 110 0 107 -1 110 -22 110 -16 0 -47 -27 -103 -91 l-80 -91 -3 91 c-2 72 -6 91 -17 91 -12 0 -15 -20 -15 -110z"/>
<path d="M1843 3661 c-38 -24 -53 -49 -53 -91 0 -69 41 -106 130 -117 104 -12 170 33 170 116 0 40 -5 52 -31 77 -27 26 -38 29 -107 32 -63 2 -83 -1 -109 -17z m185 -37 c16 -11 22 -24 22 -53 0 -58 -26 -76 -110 -76 -53 0 -73 4 -89 19 -24 22 -28 72 -8 100 26 36 136 42 185 10z"/>
<path d="M2410 3585 l0 -95 -55 0 c-42 0 -55 -3 -55 -15 0 -13 21 -15 125 -15 104 0 125 2 125 15 0 12 -13 15 -55 15 l-55 0 0 95 c0 78 -3 95 -15 95 -12 0 -15 -17 -15 -95z"/>
<path d="M2646 3665 c-43 -22 -55 -44 -56 -96 0 -58 24 -91 78 -107 86 -26 192 1 212 53 24 64 5 121 -50 150 -38 20 -146 19 -184 0z m181 -40 c23 -15 30 -54 17 -90 -18 -46 -140 -62 -188 -24 -20 16 -26 29 -26 59 0 20 6 43 14 49 39 33 137 36 183 6z"/>
<path d="M2980 3570 l0 -110 101 0 c124 0 139 7 139 63 0 71 -14 81 -119 85 l-91 4 0 34 c0 24 -5 34 -15 34 -12 0 -15 -19 -15 -110z m200 -19 c13 -25 13 -27 -6 -45 -11 -12 -35 -16 -85 -16 l-69 0 0 40 0 40 75 0 c63 0 76 -3 85 -19z"/>
<path d="M3346 3665 c-43 -22 -55 -44 -56 -96 0 -58 24 -91 78 -107 86 -26 192 1 212 53 24 64 5 121 -50 150 -38 20 -146 19 -184 0z m181 -40 c23 -15 30 -54 17 -90 -18 -46 -140 -62 -188 -24 -20 16 -26 29 -26 59 0 20 6 43 14 49 39 33 137 36 183 6z"/>
<path d="M280 3220 l0 -110 101 0 c124 0 139 7 139 63 0 71 -14 81 -119 85 l-91 4 0 34 c0 24 -5 34 -15 34 -12 0 -15 -19 -15 -110z m200 -19 c13 -25 13 -27 -6 -45 -11 -12 -35 -16 -85 -16 l-69 0 0 40 0 40 75 0 c63 0 76 -3 85 -19z"/>
<path d="M607 3263 c-4 -38 -7 -87 -7 -110 l0 -43 119 0 c113 0 121 1 135 22 20 28 20 62 1 78 -11 9 -12 17 -5 30 16 29 13 90 -4 90 -14 0 -18 -8 -30 -62 -6 -28 -7 -28 -91 -28 l-85 0 0 45 c0 31 -4 45 -14 45 -9 0 -15 -21 -19 -67z m221 -90 c4 -28 -20 -35 -113 -31 -68 3 -70 4 -73 31 l-3 28 93 -3 c87 -3 93 -4 96 -25z"/>
<path d="M996 3315 c-43 -22 -55 -44 -56 -96 0 -58 24 -91 78 -107 86 -26 192 1 212 53 24 64 5 121 -50 150 -38 20 -146 19 -184 0z m181 -40 c23 -15 30 -54 17 -90 -18 -46 -140 -62 -188 -24 -20 16 -26 29 -26 59 0 20 6 43 14 49 39 33 137 36 183 6z"/>
<path d="M1393 3323 c-12 -2 -33 -15 -47 -28 -21 -19 -26 -33 -26 -70 0 -86 37 -115 149 -115 60 0 74 3 100 26 17 14 31 30 31 35 0 15 -32 10 -44 -7 -26 -35 -147 -34 -186 1 -28 25 -27 86 1 111 16 15 36 19 89 19 53 0 73 -4 89 -19 31 -28 26 -36 -24 -36 -33 0 -45 -4 -45 -15 0 -12 14 -15 65 -15 l65 0 0 60 c0 47 -3 60 -15 60 -8 0 -15 -9 -15 -19 0 -18 -1 -18 -37 0 -35 18 -95 23 -150 12z"/>
<path d="M1707 3263 c-4 -38 -7 -87 -7 -111 l0 -43 122 3 123 3 13 28 c11 23 11 32 -3 59 -10 21 -12 35 -5 42 5 5 10 27 10 48 0 31 -4 38 -20 38 -16 0 -20 -7 -20 -33 0 -49 -14 -57 -102 -57 l-78 0 0 45 c0 31 -4 45 -14 45 -9 0 -15 -21 -19 -67z m217 -79 c13 -33 -13 -44 -100 -44 l-84 0 0 30 0 30 89 0 c73 0 90 -3 95 -16z"/>
<path d="M2062 3233 c61 -119 65 -123 93 -123 18 0 32 20 79 110 51 97 55 110 37 110 -11 0 -22 -9 -26 -20 -6 -18 -15 -20 -91 -20 -73 0 -85 3 -96 20 -7 11 -21 20 -30 20 -14 0 -8 -18 34 -97z m121 -30 c-15 -27 -27 -49 -29 -51 -3 -4 -54 82 -54 91 0 4 24 7 54 7 l55 0 -26 -47z"/>
<path d="M2360 3220 c0 -109 0 -110 24 -110 19 0 34 17 77 90 29 50 57 89 61 88 4 -2 31 -41 61 -88 43 -69 58 -86 80 -88 l27 -3 0 110 c0 92 -3 111 -15 111 -12 0 -15 -17 -15 -91 0 -49 -4 -88 -8 -85 -5 3 -32 43 -60 90 -36 58 -59 86 -71 86 -13 0 -36 -28 -72 -91 l-54 -90 -3 90 c-2 72 -6 91 -17 91 -12 0 -15 -20 -15 -110z"/>
<path d="M2760 3323 c0 -5 24 -53 54 -108 47 -90 56 -100 81 -100 25 0 32 10 81 104 30 58 54 106 54 108 0 12 -32 -1 -42 -17 -11 -17 -24 -20 -95 -20 -72 0 -84 2 -93 20 -10 19 -40 28 -40 13z m164 -120 c-15 -27 -28 -50 -30 -51 -1 -2 -14 19 -28 47 l-26 51 56 0 56 0 -28 -47z"/>
<path d="M3100 3219 l0 -111 116 4 c113 3 116 4 140 31 18 21 24 40 24 73 0 91 -38 114 -185 114 l-95 0 0 -111z m214 61 c22 -8 26 -15 26 -52 0 -24 -4 -49 -9 -56 -11 -17 -72 -31 -138 -32 l-53 0 0 75 0 75 74 0 c41 0 86 -4 100 -10z"/>
<path d="M3502 3310 c-90 -55 -53 -186 58 -205 64 -11 127 2 162 34 26 23 31 35 31 72 0 57 -17 87 -58 105 -52 21 -153 18 -193 -6z m196 -46 c30 -34 28 -60 -8 -96 -29 -29 -34 -30 -97 -26 -54 3 -69 8 -84 27 -38 47 -11 112 51 124 52 10 114 -3 138 -29z"/>
<path d="M3847 3263 c-4 -38 -7 -87 -7 -111 l0 -43 122 3 123 3 13 28 c11 23 11 32 -3 59 -10 21 -12 35 -5 42 5 5 10 27 10 48 0 31 -4 38 -20 38 -16 0 -20 -7 -20 -33 0 -49 -14 -57 -102 -57 l-78 0 0 45 c0 31 -4 45 -14 45 -9 0 -15 -21 -19 -67z m217 -79 c13 -33 -13 -44 -100 -44 l-84 0 0 30 0 30 89 0 c73 0 90 -3 95 -16z"/>
<path d="M4200 3220 l0 -110 115 0 c96 0 115 3 115 15 0 12 -18 15 -100 15 l-100 0 0 35 0 35 85 0 c50 0 85 4 85 10 0 6 -35 10 -85 10 l-85 0 0 35 0 35 100 0 c82 0 100 3 100 15 0 12 -19 15 -115 15 l-115 0 0 -110z"/>
<path d="M4540 3312 c-37 -18 -53 -52 -26 -52 9 0 16 4 16 8 0 16 51 32 101 32 55 0 89 -13 89 -34 0 -18 -21 -25 -107 -36 -97 -13 -115 -23 -111 -63 4 -46 35 -58 136 -55 75 3 86 5 104 28 18 22 18 25 4 28 -9 2 -23 -4 -32 -12 -17 -18 -148 -23 -173 -7 -26 17 -4 39 46 46 125 17 154 26 164 52 13 35 -10 68 -52 77 -57 11 -123 6 -159 -12z"/>
</g>


</svg>