<!DOCTYPE svg PUBLIC "-//W3C//DTD SVG 20010904//EN" "http://www.w3.org/TR/2001/REC-SVG-20010904/DTD/svg10.dtd">
<svg version="1.0" xmlns="http://www.w3.org/2000/svg" width="500px" height="500px" viewBox="0 0 5000 5000" preserveAspectRatio="xMidYMid meet">
<g id="layer101" fill="#04191e" stroke="none">
<path d="M0 2500 l0 -2500 2500 0 2500 0 0 2500 0 2500 -2500 0 -2500 0 0 -2500z"/>
</g>
<g id="layer102" fill="#071a32" stroke="none">
<path d="M0 2500 l0 -2500 2500 0 2500 0 0 2500 0 2500 -2500 0 -2500 0 0 -2500z m1622 1163 l3 -77 40 75 40 74 45 0 45 0 3 -162 c2 -156 2 -162 -18 -168 -12 -4 -32 -4 -45 -1 -22 6 -24 12 -27 79 l-3 72 -37 -72 c-31 -59 -43 -72 -67 -78 -17 -4 -40 -4 -51 0 -19 6 -20 15 -20 164 0 87 3 161 7 164 3 4 23 7 44 7 l38 0 3 -77z m465 57 c50 -30 66 -70 61 -161 -3 -66 -7 -81 -28 -104 -51 -55 -116 -69 -184 -41 -49 20 -77 66 -83 135 -7 74 9 122 53 161 30 26 42 30 92 30 39 0 67 -6 89 -20z m371 -107 l3 -123 30 0 c29 0 30 -1 27 -42 l-3 -43 -110 0 -110 0 0 40 c0 38 2 40 33 43 l32 3 0 125 0 125 48 -3 47 -3 3 -122z m339 107 c50 -30 66 -70 61 -161 -3 -66 -7 -81 -28 -104 -51 -55 -116 -69 -184 -41 -49 20 -77 66 -83 135 -7 74 9 122 53 161 30 26 42 30 92 30 39 0 67 -6 89 -20z m211 -32 c3 -44 5 -48 28 -48 74 0 128 -83 105 -160 -15 -51 -50 -69 -143 -77 -54 -5 -72 -3 -79 8 -10 17 -12 312 -2 323 4 4 25 6 48 4 l40 -3 3 -47z m436 21 c59 -51 73 -151 34 -229 -48 -94 -170 -108 -245 -28 -27 29 -44 102 -36 154 14 93 62 134 155 134 50 0 62 -4 92 -31z m-2874 -469 c0 -48 1 -50 28 -50 73 0 126 -79 106 -157 -14 -56 -46 -74 -140 -76 l-79 -2 -3 168 -2 167 45 0 45 0 0 -50z m292 -12 l3 -63 30 60 c34 67 61 80 104 46 l24 -18 -31 -54 c-30 -54 -30 -54 -11 -78 28 -34 26 -105 -5 -136 -25 -25 -99 -40 -166 -33 l-35 3 -3 168 -2 167 44 0 45 0 3 -62z m430 45 c89 -53 92 -233 5 -297 -21 -16 -44 -21 -87 -21 -99 0 -150 58 -150 170 1 108 52 165 148 165 33 0 65 -7 84 -17z m357 8 c9 -6 16 -35 19 -84 4 -70 3 -75 -17 -82 -40 -13 -61 3 -61 46 0 34 -3 39 -23 39 -61 0 -85 -111 -31 -146 20 -14 32 -15 59 -7 40 13 51 4 61 -45 6 -28 3 -33 -22 -43 -42 -16 -130 -6 -162 18 -89 66 -88 239 2 294 33 20 148 27 175 10z m173 -53 l3 -63 29 63 c32 70 55 79 100 40 l26 -23 -30 -48 -31 -48 21 -26 c27 -35 27 -106 0 -133 -26 -26 -61 -34 -140 -35 l-65 0 -3 168 -2 167 44 0 45 0 3 -62z m282 25 c8 -30 13 -33 47 -33 35 0 39 3 47 33 8 30 11 32 55 35 33 2 47 -1 47 -10 0 -7 -16 -82 -37 -165 l-37 -153 -33 -6 c-31 -6 -103 2 -103 11 0 2 -18 71 -40 154 -22 82 -40 155 -40 161 0 7 16 10 42 8 38 -3 43 -6 52 -35z m340 21 c3 -9 6 -52 7 -97 l1 -82 31 98 c30 98 31 98 61 95 29 -3 32 -7 61 -98 l30 -95 5 95 5 95 43 3 c28 2 44 -1 47 -10 3 -7 1 -80 -3 -163 l-7 -149 -32 -9 c-17 -5 -47 -7 -66 -3 -33 6 -35 10 -57 84 -25 84 -22 85 -60 -19 -19 -52 -24 -58 -56 -64 -20 -3 -48 -3 -63 0 l-28 6 -6 156 c-3 86 -4 160 -1 165 10 15 81 9 88 -8z m438 -21 c8 -30 12 -33 47 -33 34 0 39 3 47 33 9 30 13 32 57 35 34 2 47 -1 47 -10 0 -7 -18 -80 -38 -163 -38 -147 -39 -150 -69 -159 -18 -4 -48 -5 -67 -2 -40 8 -35 -3 -90 209 -34 131 -35 129 16 125 38 -3 43 -6 50 -35z m445 11 c43 -32 58 -70 58 -151 0 -111 -37 -148 -159 -160 -97 -9 -96 -10 -96 172 0 83 3 155 8 159 4 4 42 6 84 4 58 -2 83 -8 105 -24z m340 6 c48 -29 67 -73 67 -151 0 -107 -55 -169 -149 -169 -94 0 -150 64 -150 170 1 112 52 170 150 170 32 0 62 -7 82 -20z m215 -42 l3 -63 30 60 c34 67 61 80 104 46 l24 -18 -31 -54 c-30 -54 -30 -54 -11 -78 28 -34 26 -105 -5 -136 -25 -25 -99 -40 -166 -33 l-35 3 -3 168 -2 167 44 0 45 0 3 -62z m396 20 l3 -38 -50 0 c-48 0 -51 -2 -51 -25 0 -22 4 -25 35 -25 33 0 35 -2 35 -35 0 -33 -2 -35 -35 -35 -30 0 -35 -3 -35 -24 0 -23 5 -25 48 -28 l47 -3 0 -40 0 -40 -92 -3 -93 -3 0 171 0 171 93 -3 92 -3 3 -37z m243 13 c23 -23 29 -38 29 -71 0 -55 -12 -74 -65 -106 -25 -14 -45 -30 -45 -36 0 -5 18 -8 41 -7 44 4 59 -9 59 -52 0 -22 -6 -28 -31 -33 -51 -10 -88 -7 -119 9 -37 19 -50 43 -50 93 0 46 26 84 70 102 16 7 30 19 30 26 0 17 -30 18 -65 2 -31 -14 -45 -1 -45 44 0 39 33 58 103 58 51 0 62 -4 88 -29z"/>
</g>
<g id="layer103" fill="#14273f" stroke="none">
</g>
<g id="layer104" fill="#850404" stroke="none">
<path d="M0 2500 l0 -2500 2500 0 2500 0 0 2500 0 2500 -2500 0 -2500 0 0 -2500z m1622 1163 l3 -77 40 75 40 74 45 0 45 0 3 -162 c2 -156 2 -162 -18 -168 -12 -4 -32 -4 -45 -1 -22 6 -24 12 -27 79 l-3 72 -37 -72 c-31 -59 -43 -72 -67 -78 -17 -4 -40 -4 -51 0 -19 6 -20 15 -20 164 0 87 3 161 7 164 3 4 23 7 44 7 l38 0 3 -77z m465 57 c50 -30 66 -70 61 -161 -3 -66 -7 -81 -28 -104 -51 -55 -116 -69 -184 -41 -49 20 -77 66 -83 135 -7 74 9 122 53 161 30 26 42 30 92 30 39 0 67 -6 89 -20z m371 -107 l3 -123 30 0 c29 0 30 -1 27 -42 l-3 -43 -110 0 -110 0 0 40 c0 38 2 40 33 43 l32 3 0 125 0 125 48 -3 47 -3 3 -122z m339 107 c50 -30 66 -70 61 -161 -3 -66 -7 -81 -28 -104 -51 -55 -116 -69 -184 -41 -49 20 -77 66 -83 135 -7 74 9 122 53 161 30 26 42 30 92 30 39 0 67 -6 89 -20z m211 -32 c3 -44 5 -48 28 -48 74 0 128 -83 105 -160 -15 -51 -50 -69 -143 -77 -54 -5 -72 -3 -79 8 -10 17 -12 312 -2 323 4 4 25 6 48 4 l40 -3 3 -47z m436 21 c59 -51 73 -151 34 -229 -48 -94 -170 -108 -245 -28 -27 29 -44 102 -36 154 14 93 62 134 155 134 50 0 62 -4 92 -31z m-2874 -469 c0 -48 1 -50 28 -50 73 0 126 -79 106 -157 -14 -56 -46 -74 -140 -76 l-79 -2 -3 168 -2 167 45 0 45 0 0 -50z m292 -12 l3 -63 30 60 c34 67 61 80 104 46 l24 -18 -31 -54 c-30 -54 -30 -54 -11 -78 28 -34 26 -105 -5 -136 -25 -25 -99 -40 -166 -33 l-35 3 -3 168 -2 167 44 0 45 0 3 -62z m430 45 c89 -53 92 -233 5 -297 -21 -16 -44 -21 -87 -21 -99 0 -150 58 -150 170 1 108 52 165 148 165 33 0 65 -7 84 -17z m357 8 c9 -6 16 -35 19 -84 4 -70 3 -75 -17 -82 -40 -13 -61 3 -61 46 0 34 -3 39 -23 39 -61 0 -85 -111 -31 -146 20 -14 32 -15 59 -7 40 13 51 4 61 -45 6 -28 3 -33 -22 -43 -42 -16 -130 -6 -162 18 -89 66 -88 239 2 294 33 20 148 27 175 10z m173 -53 l3 -63 29 63 c32 70 55 79 100 40 l26 -23 -30 -48 -31 -48 21 -26 c27 -35 27 -106 0 -133 -26 -26 -61 -34 -140 -35 l-65 0 -3 168 -2 167 44 0 45 0 3 -62z m282 25 c8 -30 13 -33 47 -33 35 0 39 3 47 33 8 30 11 32 55 35 33 2 47 -1 47 -10 0 -7 -16 -82 -37 -165 l-37 -153 -33 -6 c-31 -6 -103 2 -103 11 0 2 -18 71 -40 154 -22 82 -40 155 -40 161 0 7 16 10 42 8 38 -3 43 -6 52 -35z m340 21 c3 -9 6 -52 7 -97 l1 -82 31 98 c30 98 31 98 61 95 29 -3 32 -7 61 -98 l30 -95 5 95 5 95 43 3 c28 2 44 -1 47 -10 3 -7 1 -80 -3 -163 l-7 -149 -32 -9 c-17 -5 -47 -7 -66 -3 -33 6 -35 10 -57 84 -25 84 -22 85 -60 -19 -19 -52 -24 -58 -56 -64 -20 -3 -48 -3 -63 0 l-28 6 -6 156 c-3 86 -4 160 -1 165 10 15 81 9 88 -8z m438 -21 c8 -30 12 -33 47 -33 34 0 39 3 47 33 9 30 13 32 57 35 34 2 47 -1 47 -10 0 -7 -18 -80 -38 -163 -38 -147 -39 -150 -69 -159 -18 -4 -48 -5 -67 -2 -40 8 -35 -3 -90 209 -34 131 -35 129 16 125 38 -3 43 -6 50 -35z m445 11 c43 -32 58 -70 58 -151 0 -111 -37 -148 -159 -160 -97 -9 -96 -10 -96 172 0 83 3 155 8 159 4 4 42 6 84 4 58 -2 83 -8 105 -24z m340 6 c48 -29 67 -73 67 -151 0 -107 -55 -169 -149 -169 -94 0 -150 64 -150 170 1 112 52 170 150 170 32 0 62 -7 82 -20z m215 -42 l3 -63 30 60 c34 67 61 80 104 46 l24 -18 -31 -54 c-30 -54 -30 -54 -11 -78 28 -34 26 -105 -5 -136 -25 -25 -99 -40 -166 -33 l-35 3 -3 168 -2 167 44 0 45 0 3 -62z m396 20 l3 -38 -50 0 c-48 0 -51 -2 -51 -25 0 -22 4 -25 35 -25 33 0 35 -2 35 -35 0 -33 -2 -35 -35 -35 -30 0 -35 -3 -35 -24 0 -23 5 -25 48 -28 l47 -3 0 -40 0 -40 -92 -3 -93 -3 0 171 0 171 93 -3 92 -3 3 -37z m243 13 c23 -23 29 -38 29 -71 0 -55 -12 -74 -65 -106 -25 -14 -45 -30 -45 -36 0 -5 18 -8 41 -7 44 4 59 -9 59 -52 0 -22 -6 -28 -31 -33 -51 -10 -88 -7 -119 9 -37 19 -50 43 -50 93 0 46 26 84 70 102 16 7 30 19 30 26 0 17 -30 18 -65 2 -31 -14 -45 -1 -45 44 0 39 33 58 103 58 51 0 62 -4 88 -29z m-1141 -446 c0 -11 -487 -840 -620 -1055 -5 -8 -66 -109 -135 -225 l-126 -209 3 -96 3 -95 133 -80 c86 -52 131 -85 130 -95 -2 -9 -48 -28 -128 -53 -84 -25 -130 -45 -141 -59 -34 -44 -39 -15 -39 242 l0 248 -420 732 c-231 403 -420 738 -420 746 0 12 136 14 880 14 785 0 880 -2 880 -15z"/>
<path d="M1967 3632 c-24 -27 -22 -97 3 -122 25 -25 42 -25 63 -2 23 25 30 64 17 97 -18 48 -54 59 -83 27z"/>
<path d="M2677 3632 c-24 -27 -22 -97 3 -122 25 -25 42 -25 63 -2 23 25 30 64 17 97 -18 48 -54 59 -83 27z"/>
<path d="M3010 3525 c0 -29 3 -36 18 -33 11 2 17 13 17 33 0 20 -6 31 -17 33 -15 3 -18 -4 -18 -33z"/>
<path d="M3309 3633 c-21 -24 -18 -97 5 -122 24 -26 40 -27 66 -1 24 24 27 86 4 118 -18 26 -56 29 -75 5z"/>
<path d="M570 3075 c0 -28 4 -35 19 -35 24 0 34 25 21 51 -18 32 -40 23 -40 -16z"/>
<path d="M860 3075 c0 -28 4 -35 19 -35 24 0 37 36 21 55 -22 27 -40 17 -40 -20z"/>
<path d="M1176 3184 c-23 -23 -21 -106 2 -127 41 -38 82 -5 82 65 0 66 -46 101 -84 62z"/>
<path d="M1820 3075 c0 -24 5 -35 15 -35 21 0 35 32 24 53 -17 30 -39 20 -39 -18z"/>
<path d="M2130 3133 c1 -24 28 -82 29 -62 1 9 4 31 7 48 6 27 4 31 -15 31 -13 0 -21 -6 -21 -17z"/>
<path d="M2912 3109 c12 -44 22 -42 33 9 6 29 4 32 -18 32 -24 0 -25 -1 -15 -41z"/>
<path d="M3220 3125 c0 -74 0 -75 25 -75 31 0 49 39 41 88 -6 41 -22 62 -47 62 -17 0 -19 -8 -19 -75z"/>
<path d="M3546 3178 c-40 -57 -2 -151 54 -133 38 12 50 104 19 142 -17 20 -56 16 -73 -9z"/>
<path d="M3880 3075 c0 -28 4 -35 19 -35 24 0 37 36 21 55 -22 27 -40 17 -40 -20z"/>
<path d="M1877 2433 c113 -197 237 -413 276 -481 l70 -122 61 84 c33 47 66 88 73 90 7 3 36 -33 69 -87 31 -51 58 -93 59 -95 1 -1 32 38 68 88 37 49 71 90 76 90 5 0 33 -41 64 -91 l55 -91 282 474 c156 260 287 479 293 486 7 9 -158 12 -821 12 l-831 0 206 -357z"/>
<path d="M2301 1870 c-28 -39 -51 -75 -51 -80 0 -11 231 -412 235 -408 12 13 235 391 235 399 0 8 -73 132 -90 152 -4 4 -32 -28 -64 -72 -31 -43 -62 -84 -70 -90 -16 -14 -27 -1 -87 97 -24 39 -47 72 -50 72 -4 0 -30 -32 -58 -70z"/>
<path d="M2500 1001 c0 -50 3 -91 8 -91 4 0 49 13 101 29 l94 28 -89 55 c-49 30 -95 58 -101 62 -10 5 -13 -14 -13 -83z"/>
</g>
<g id="layer105" fill="#24354b" stroke="none">
</g>
<g id="layer106" fill="#344559" stroke="none">
</g>
<g id="layer107" fill="#ffffff" stroke="none">
<path d="M1870 2685 c0 -10 393 -740 405 -753 10 -11 18 -6 41 27 16 22 34 43 41 45 7 3 36 -33 69 -87 31 -51 58 -93 59 -95 1 -1 32 38 68 88 37 49 71 90 76 90 5 0 21 -21 36 -46 15 -25 31 -42 36 -37 4 4 105 180 222 391 l215 382 -634 0 c-349 0 -634 -2 -634 -5z"/>
<path d="M2331 1911 c-12 -16 -21 -34 -21 -40 0 -15 171 -331 179 -331 3 0 46 72 95 161 l89 160 -19 35 c-11 20 -22 37 -25 40 -3 2 -32 -32 -63 -75 -31 -44 -62 -84 -70 -90 -16 -14 -27 -1 -87 97 -24 39 -47 72 -51 72 -3 0 -16 -13 -27 -29z"/>
</g>


</svg>